# xmcd CD database file
#
# Track frame offsets:
#	150
#	33169
#	92320
#	140957
#	149954
#	190076
#	217378
#	268496
#	303195
#	348675
#
# Disc length: 4721 seconds
#
# Revision: 0
# Processed by: cddbd v1.5.2PL0 Copyright (c) Steve Scherf et al.
# Submitted via: CDex 1.51
#
DISCID=a9126f0a
DTITLE=Gerry Mulligan Concert Jazzband - Live at the Olympya Paris - CD2
DYEAR=1960
DGENRE=Jazz
TTITLE0=I'm gonna go fishing
TTITLE1=Broadway
TTITLE2=Blueport
TTITLE3=Walkin' shoes (end of concert)
TTITLE4=Spring is sprung
TTITLE5=Five brothers
TTITLE6=Subterranean blues
TTITLE7=Darn that dream
TTITLE8=Blueport
TTITLE9=Utter chaos
EXTD=YEAR: 1960
EXTT0=
EXTT1=
EXTT2=
EXTT3=
EXTT4=
EXTT5=
EXTT6=
EXTT7=
EXTT8=
EXTT9=
PLAYORDER=
